<mxfile host="65bd71144e">
    <diagram name="Scan Sequence" id="q7lql6Rnk0C88M9I_R8n">
        <mxGraphModel dx="1303" dy="658" grid="1" gridSize="10" guides="1" tooltips="1" connect="1" arrows="1" fold="1" page="1" pageScale="1" pageWidth="1169" pageHeight="827" math="0" shadow="0">
            <root>
                <mxCell id="q8jM38vmVzUxVSB9RsKX-0"/>
                <mxCell id="q8jM38vmVzUxVSB9RsKX-1" parent="q8jM38vmVzUxVSB9RsKX-0"/>
                <mxCell id="q8jM38vmVzUxVSB9RsKX-2" value="Aegis" style="rounded=0;whiteSpace=wrap;html=1;" vertex="1" parent="q8jM38vmVzUxVSB9RsKX-1">
                    <mxGeometry x="360" y="40" width="120" height="40" as="geometry"/>
                </mxCell>
                <mxCell id="q8jM38vmVzUxVSB9RsKX-3" value="Object Store&lt;br&gt;&quot;MinIO&quot;" style="rounded=0;whiteSpace=wrap;html=1;" vertex="1" parent="q8jM38vmVzUxVSB9RsKX-1">
                    <mxGeometry x="40" y="40" width="120" height="40" as="geometry"/>
                </mxCell>
                <mxCell id="q8jM38vmVzUxVSB9RsKX-4" value="Event Queue" style="rounded=0;whiteSpace=wrap;html=1;" vertex="1" parent="q8jM38vmVzUxVSB9RsKX-1">
                    <mxGeometry x="200" y="40" width="120" height="40" as="geometry"/>
                </mxCell>
                <mxCell id="q8jM38vmVzUxVSB9RsKX-5" value="Antivirus" style="rounded=0;whiteSpace=wrap;html=1;" vertex="1" parent="q8jM38vmVzUxVSB9RsKX-1">
                    <mxGeometry x="520" y="40" width="120" height="40" as="geometry"/>
                </mxCell>
                <mxCell id="q8jM38vmVzUxVSB9RsKX-6" value="" style="endArrow=none;html=1;entryX=0.5;entryY=1;entryDx=0;entryDy=0;" edge="1" parent="q8jM38vmVzUxVSB9RsKX-1" target="q8jM38vmVzUxVSB9RsKX-3">
                    <mxGeometry width="50" height="50" relative="1" as="geometry">
                        <mxPoint x="100" y="400" as="sourcePoint"/>
                        <mxPoint x="260" y="230" as="targetPoint"/>
                    </mxGeometry>
                </mxCell>
                <mxCell id="q8jM38vmVzUxVSB9RsKX-7" value="" style="endArrow=none;html=1;entryX=0.5;entryY=1;entryDx=0;entryDy=0;" edge="1" parent="q8jM38vmVzUxVSB9RsKX-1">
                    <mxGeometry width="50" height="50" relative="1" as="geometry">
                        <mxPoint x="260" y="400" as="sourcePoint"/>
                        <mxPoint x="259.57" y="80" as="targetPoint"/>
                    </mxGeometry>
                </mxCell>
                <mxCell id="q8jM38vmVzUxVSB9RsKX-8" value="" style="endArrow=none;html=1;entryX=0.5;entryY=1;entryDx=0;entryDy=0;startArrow=none;" edge="1" parent="q8jM38vmVzUxVSB9RsKX-1" source="q8jM38vmVzUxVSB9RsKX-18">
                    <mxGeometry width="50" height="50" relative="1" as="geometry">
                        <mxPoint x="419.57" y="490" as="sourcePoint"/>
                        <mxPoint x="419.57" y="80" as="targetPoint"/>
                    </mxGeometry>
                </mxCell>
                <mxCell id="q8jM38vmVzUxVSB9RsKX-9" value="" style="endArrow=none;html=1;entryX=0.5;entryY=1;entryDx=0;entryDy=0;startArrow=none;" edge="1" parent="q8jM38vmVzUxVSB9RsKX-1" source="q8jM38vmVzUxVSB9RsKX-21">
                    <mxGeometry width="50" height="50" relative="1" as="geometry">
                        <mxPoint x="579.5699999999999" y="490" as="sourcePoint"/>
                        <mxPoint x="579.5699999999999" y="80" as="targetPoint"/>
                    </mxGeometry>
                </mxCell>
                <mxCell id="q8jM38vmVzUxVSB9RsKX-10" value="" style="shape=flexArrow;endArrow=classic;html=1;width=5.217391304347826;endSize=4.130434782608696;endWidth=11.115311909262761;entryX=0;entryY=0;entryDx=0;entryDy=0;" edge="1" parent="q8jM38vmVzUxVSB9RsKX-1" target="q8jM38vmVzUxVSB9RsKX-16">
                    <mxGeometry width="50" height="50" relative="1" as="geometry">
                        <mxPoint x="100" y="120" as="sourcePoint"/>
                        <mxPoint x="260" y="120" as="targetPoint"/>
                    </mxGeometry>
                </mxCell>
                <mxCell id="q8jM38vmVzUxVSB9RsKX-11" value="PUT Event" style="edgeLabel;html=1;align=center;verticalAlign=middle;resizable=0;points=[];" vertex="1" connectable="0" parent="q8jM38vmVzUxVSB9RsKX-10">
                    <mxGeometry x="-0.0245" y="2" relative="1" as="geometry">
                        <mxPoint y="-8" as="offset"/>
                    </mxGeometry>
                </mxCell>
                <mxCell id="q8jM38vmVzUxVSB9RsKX-12" value="" style="shape=flexArrow;endArrow=classic;html=1;width=5.217391304347826;endSize=4.130434782608696;endWidth=11.115311909262761;startArrow=none;exitX=1;exitY=1;exitDx=0;exitDy=0;entryX=0;entryY=0;entryDx=0;entryDy=0;" edge="1" parent="q8jM38vmVzUxVSB9RsKX-1" source="q8jM38vmVzUxVSB9RsKX-16" target="q8jM38vmVzUxVSB9RsKX-18">
                    <mxGeometry width="50" height="50" relative="1" as="geometry">
                        <mxPoint x="270.0000000000001" y="162" as="sourcePoint"/>
                        <mxPoint x="420.0000000000001" y="162" as="targetPoint"/>
                    </mxGeometry>
                </mxCell>
                <mxCell id="q8jM38vmVzUxVSB9RsKX-13" value="Scan Request" style="edgeLabel;html=1;align=center;verticalAlign=middle;resizable=0;points=[];" vertex="1" connectable="0" parent="q8jM38vmVzUxVSB9RsKX-12">
                    <mxGeometry x="-0.1092" y="1" relative="1" as="geometry">
                        <mxPoint y="-9" as="offset"/>
                    </mxGeometry>
                </mxCell>
                <mxCell id="q8jM38vmVzUxVSB9RsKX-14" value="" style="shape=flexArrow;endArrow=none;html=1;width=5.217391304347826;endSize=4.130434782608696;endWidth=11.115311909262761;" edge="1" parent="q8jM38vmVzUxVSB9RsKX-1" target="q8jM38vmVzUxVSB9RsKX-16">
                    <mxGeometry width="50" height="50" relative="1" as="geometry">
                        <mxPoint x="260.0000000000001" y="160" as="sourcePoint"/>
                        <mxPoint x="420" y="160" as="targetPoint"/>
                    </mxGeometry>
                </mxCell>
                <mxCell id="q8jM38vmVzUxVSB9RsKX-15" value="PUT" style="edgeLabel;html=1;align=center;verticalAlign=middle;resizable=0;points=[];" vertex="1" connectable="0" parent="q8jM38vmVzUxVSB9RsKX-14">
                    <mxGeometry x="-0.0245" y="2" relative="1" as="geometry">
                        <mxPoint y="-8" as="offset"/>
                    </mxGeometry>
                </mxCell>
                <mxCell id="q8jM38vmVzUxVSB9RsKX-16" value="" style="rounded=0;whiteSpace=wrap;html=1;" vertex="1" parent="q8jM38vmVzUxVSB9RsKX-1">
                    <mxGeometry x="250" y="120" width="20" height="40" as="geometry"/>
                </mxCell>
                <mxCell id="q8jM38vmVzUxVSB9RsKX-17" value="" style="endArrow=none;html=1;entryX=0.5;entryY=1;entryDx=0;entryDy=0;" edge="1" parent="q8jM38vmVzUxVSB9RsKX-1" target="q8jM38vmVzUxVSB9RsKX-18">
                    <mxGeometry width="50" height="50" relative="1" as="geometry">
                        <mxPoint x="420" y="400" as="sourcePoint"/>
                        <mxPoint x="419.56999999999994" y="80" as="targetPoint"/>
                    </mxGeometry>
                </mxCell>
                <mxCell id="q8jM38vmVzUxVSB9RsKX-18" value="" style="rounded=0;whiteSpace=wrap;html=1;" vertex="1" parent="q8jM38vmVzUxVSB9RsKX-1">
                    <mxGeometry x="410" y="160" width="20" height="190" as="geometry"/>
                </mxCell>
                <mxCell id="q8jM38vmVzUxVSB9RsKX-19" value="Scan" style="shape=flexArrow;endArrow=classic;html=1;width=5.217391304347826;endSize=4.130434782608696;endWidth=11.115311909262761;startArrow=none;exitX=1;exitY=1;exitDx=0;exitDy=0;entryX=0;entryY=0;entryDx=0;entryDy=0;" edge="1" parent="q8jM38vmVzUxVSB9RsKX-1">
                    <mxGeometry y="10" width="50" height="50" relative="1" as="geometry">
                        <mxPoint x="430.0000000000001" y="180" as="sourcePoint"/>
                        <mxPoint x="570" y="180" as="targetPoint"/>
                        <mxPoint as="offset"/>
                    </mxGeometry>
                </mxCell>
                <mxCell id="q8jM38vmVzUxVSB9RsKX-20" value="" style="endArrow=none;html=1;entryX=0.5;entryY=1;entryDx=0;entryDy=0;" edge="1" parent="q8jM38vmVzUxVSB9RsKX-1" target="q8jM38vmVzUxVSB9RsKX-21">
                    <mxGeometry width="50" height="50" relative="1" as="geometry">
                        <mxPoint x="580" y="400" as="sourcePoint"/>
                        <mxPoint x="579.5699999999999" y="80" as="targetPoint"/>
                    </mxGeometry>
                </mxCell>
                <mxCell id="q8jM38vmVzUxVSB9RsKX-21" value="" style="rounded=0;whiteSpace=wrap;html=1;" vertex="1" parent="q8jM38vmVzUxVSB9RsKX-1">
                    <mxGeometry x="570" y="180" width="20" height="100" as="geometry"/>
                </mxCell>
                <mxCell id="q8jM38vmVzUxVSB9RsKX-23" value="Metrics" style="rounded=0;whiteSpace=wrap;html=1;" vertex="1" parent="q8jM38vmVzUxVSB9RsKX-1">
                    <mxGeometry x="680" y="40" width="120" height="40" as="geometry"/>
                </mxCell>
                <mxCell id="q8jM38vmVzUxVSB9RsKX-25" value="" style="endArrow=none;html=1;entryX=0.5;entryY=1;entryDx=0;entryDy=0;startArrow=none;" edge="1" parent="q8jM38vmVzUxVSB9RsKX-1" source="JGEayXXjuZlR9tzRTvJ4-9">
                    <mxGeometry width="50" height="50" relative="1" as="geometry">
                        <mxPoint x="740" y="480" as="sourcePoint"/>
                        <mxPoint x="739.4399999999999" y="80" as="targetPoint"/>
                    </mxGeometry>
                </mxCell>
                <mxCell id="q8jM38vmVzUxVSB9RsKX-26" value="" style="shape=flexArrow;endArrow=classic;html=1;width=5.217391304347826;endSize=4.130434782608696;endWidth=11.115311909262761;startArrow=none;exitX=1;exitY=1;exitDx=0;exitDy=0;" edge="1" parent="q8jM38vmVzUxVSB9RsKX-1">
                    <mxGeometry width="50" height="50" relative="1" as="geometry">
                        <mxPoint x="570" y="281" as="sourcePoint"/>
                        <mxPoint x="430" y="280" as="targetPoint"/>
                    </mxGeometry>
                </mxCell>
                <mxCell id="q8jM38vmVzUxVSB9RsKX-27" value="Scan Result" style="edgeLabel;html=1;align=center;verticalAlign=middle;resizable=0;points=[];" vertex="1" connectable="0" parent="q8jM38vmVzUxVSB9RsKX-26">
                    <mxGeometry x="-0.0343" y="-4" relative="1" as="geometry">
                        <mxPoint y="-7" as="offset"/>
                    </mxGeometry>
                </mxCell>
                <mxCell id="q8jM38vmVzUxVSB9RsKX-28" value="Metric Logging" style="shape=flexArrow;endArrow=classic;html=1;width=5.217391304347826;endSize=4.130434782608696;endWidth=11.115311909262761;startArrow=none;exitX=1;exitY=1;exitDx=0;exitDy=0;entryX=0;entryY=0.5;entryDx=0;entryDy=0;" edge="1" parent="q8jM38vmVzUxVSB9RsKX-1">
                    <mxGeometry x="-0.0323" y="10" width="50" height="50" relative="1" as="geometry">
                        <mxPoint x="429.9999999999998" y="304.39" as="sourcePoint"/>
                        <mxPoint x="725.0000000000298" y="305.59999999999997" as="targetPoint"/>
                        <mxPoint as="offset"/>
                    </mxGeometry>
                </mxCell>
                <mxCell id="q8jM38vmVzUxVSB9RsKX-29" value="" style="shape=flexArrow;endArrow=classic;html=1;width=5.217391304347826;endSize=4.130434782608696;endWidth=11.115311909262761;startArrow=none;exitX=1;exitY=1;exitDx=0;exitDy=0;entryX=0;entryY=0.5;entryDx=0;entryDy=0;" edge="1" parent="q8jM38vmVzUxVSB9RsKX-1">
                    <mxGeometry width="50" height="50" relative="1" as="geometry">
                        <mxPoint x="429.9999999999998" y="335" as="sourcePoint"/>
                        <mxPoint x="885" y="335.0000000000001" as="targetPoint"/>
                    </mxGeometry>
                </mxCell>
                <mxCell id="q8jM38vmVzUxVSB9RsKX-30" value="Audit Logging" style="edgeLabel;html=1;align=center;verticalAlign=middle;resizable=0;points=[];" vertex="1" connectable="0" parent="q8jM38vmVzUxVSB9RsKX-29">
                    <mxGeometry x="0.0118" relative="1" as="geometry">
                        <mxPoint y="-10" as="offset"/>
                    </mxGeometry>
                </mxCell>
                <mxCell id="q8jM38vmVzUxVSB9RsKX-31" value="Cleanup Policy:&lt;br&gt;Tag, Remove or Quarantine" style="shape=flexArrow;endArrow=classic;html=1;width=5.217391304347826;endSize=4.130434782608696;endWidth=11.115311909262761;startArrow=none;" edge="1" parent="q8jM38vmVzUxVSB9RsKX-1">
                    <mxGeometry x="0.2699" y="-20" width="50" height="50" relative="1" as="geometry">
                        <mxPoint x="410" y="350" as="sourcePoint"/>
                        <mxPoint x="100" y="350" as="targetPoint"/>
                        <mxPoint as="offset"/>
                    </mxGeometry>
                </mxCell>
                <mxCell id="JGEayXXjuZlR9tzRTvJ4-0" value="Audit Log" style="rounded=0;whiteSpace=wrap;html=1;" vertex="1" parent="q8jM38vmVzUxVSB9RsKX-1">
                    <mxGeometry x="840" y="40" width="120" height="40" as="geometry"/>
                </mxCell>
                <mxCell id="JGEayXXjuZlR9tzRTvJ4-1" value="" style="endArrow=none;html=1;entryX=0.5;entryY=1;entryDx=0;entryDy=0;startArrow=none;" edge="1" parent="q8jM38vmVzUxVSB9RsKX-1" source="JGEayXXjuZlR9tzRTvJ4-10">
                    <mxGeometry width="50" height="50" relative="1" as="geometry">
                        <mxPoint x="899" y="480" as="sourcePoint"/>
                        <mxPoint x="899.44" y="80" as="targetPoint"/>
                    </mxGeometry>
                </mxCell>
                <mxCell id="JGEayXXjuZlR9tzRTvJ4-11" value="" style="endArrow=none;html=1;entryX=0.5;entryY=1;entryDx=0;entryDy=0;" edge="1" parent="q8jM38vmVzUxVSB9RsKX-1" target="JGEayXXjuZlR9tzRTvJ4-10">
                    <mxGeometry width="50" height="50" relative="1" as="geometry">
                        <mxPoint x="900" y="400" as="sourcePoint"/>
                        <mxPoint x="899.44" y="80" as="targetPoint"/>
                    </mxGeometry>
                </mxCell>
                <mxCell id="JGEayXXjuZlR9tzRTvJ4-10" value="" style="ellipse;whiteSpace=wrap;html=1;aspect=fixed;fontSize=10;" vertex="1" parent="q8jM38vmVzUxVSB9RsKX-1">
                    <mxGeometry x="885" y="320" width="30" height="30" as="geometry"/>
                </mxCell>
                <mxCell id="ftP7DlK2IL7sLlWNqVgL-0" value="" style="endArrow=none;html=1;entryX=0.5;entryY=1;entryDx=0;entryDy=0;" edge="1" parent="q8jM38vmVzUxVSB9RsKX-1" target="JGEayXXjuZlR9tzRTvJ4-9">
                    <mxGeometry width="50" height="50" relative="1" as="geometry">
                        <mxPoint x="740" y="400" as="sourcePoint"/>
                        <mxPoint x="739.44" y="80" as="targetPoint"/>
                    </mxGeometry>
                </mxCell>
                <mxCell id="JGEayXXjuZlR9tzRTvJ4-9" value="" style="ellipse;whiteSpace=wrap;html=1;aspect=fixed;fontSize=10;" vertex="1" parent="q8jM38vmVzUxVSB9RsKX-1">
                    <mxGeometry x="725" y="290" width="30" height="30" as="geometry"/>
                </mxCell>
            </root>
        </mxGraphModel>
    </diagram>
    <diagram id="-TTr44qlprEOKrbXGCua" name="Shutdown sequence">
        <mxGraphModel dx="1440" dy="727" grid="1" gridSize="10" guides="1" tooltips="1" connect="1" arrows="1" fold="1" page="1" pageScale="1" pageWidth="1169" pageHeight="827" math="0" shadow="0">
            <root>
                <mxCell id="0"/>
                <mxCell id="1" parent="0"/>
                <mxCell id="63hrSBzB3HSz2IJns-Wd-49" value="" style="rounded=0;whiteSpace=wrap;html=1;dashed=1;" vertex="1" parent="1">
                    <mxGeometry x="560" y="140" width="360" height="200" as="geometry"/>
                </mxCell>
                <mxCell id="2z_JO9Gp1-NiMMqwLCWK-1" value="Kafka" style="rounded=0;whiteSpace=wrap;html=1;" vertex="1" parent="1">
                    <mxGeometry x="360" y="40" width="120" height="40" as="geometry"/>
                </mxCell>
                <mxCell id="2z_JO9Gp1-NiMMqwLCWK-2" value="Main" style="rounded=0;whiteSpace=wrap;html=1;" vertex="1" parent="1">
                    <mxGeometry x="40" y="40" width="120" height="40" as="geometry"/>
                </mxCell>
                <mxCell id="2z_JO9Gp1-NiMMqwLCWK-3" value="Event Manager" style="rounded=0;whiteSpace=wrap;html=1;" vertex="1" parent="1">
                    <mxGeometry x="200" y="40" width="120" height="40" as="geometry"/>
                </mxCell>
                <mxCell id="2z_JO9Gp1-NiMMqwLCWK-4" value="Dispatcher" style="rounded=0;whiteSpace=wrap;html=1;" vertex="1" parent="1">
                    <mxGeometry x="520" y="40" width="120" height="40" as="geometry"/>
                </mxCell>
                <mxCell id="2z_JO9Gp1-NiMMqwLCWK-5" value="" style="endArrow=none;html=1;entryX=0.5;entryY=1;entryDx=0;entryDy=0;" edge="1" parent="1" target="2z_JO9Gp1-NiMMqwLCWK-2">
                    <mxGeometry width="50" height="50" relative="1" as="geometry">
                        <mxPoint x="100" y="440" as="sourcePoint"/>
                        <mxPoint x="260" y="230" as="targetPoint"/>
                    </mxGeometry>
                </mxCell>
                <mxCell id="2z_JO9Gp1-NiMMqwLCWK-14" value="" style="shape=flexArrow;endArrow=none;html=1;width=5.217391304347826;endSize=4.130434782608696;endWidth=11.115311909262761;" edge="1" parent="1">
                    <mxGeometry width="50" height="50" relative="1" as="geometry">
                        <mxPoint x="260.0000000000001" y="160" as="sourcePoint"/>
                        <mxPoint x="260" y="160" as="targetPoint"/>
                    </mxGeometry>
                </mxCell>
                <mxCell id="2z_JO9Gp1-NiMMqwLCWK-21" value="Scanner" style="rounded=0;whiteSpace=wrap;html=1;" vertex="1" parent="1">
                    <mxGeometry x="680" y="40" width="120" height="40" as="geometry"/>
                </mxCell>
                <mxCell id="2z_JO9Gp1-NiMMqwLCWK-22" value="Antivirus" style="rounded=0;whiteSpace=wrap;html=1;" vertex="1" parent="1">
                    <mxGeometry x="840" y="40" width="120" height="40" as="geometry"/>
                </mxCell>
                <mxCell id="2z_JO9Gp1-NiMMqwLCWK-25" value="" style="endArrow=none;html=1;entryX=0.5;entryY=1;entryDx=0;entryDy=0;startArrow=none;" edge="1" parent="1">
                    <mxGeometry width="50" height="50" relative="1" as="geometry">
                        <mxPoint x="740" y="440" as="sourcePoint"/>
                        <mxPoint x="739.4399999999999" y="80" as="targetPoint"/>
                    </mxGeometry>
                </mxCell>
                <mxCell id="2z_JO9Gp1-NiMMqwLCWK-26" value="" style="endArrow=none;html=1;entryX=0.5;entryY=1;entryDx=0;entryDy=0;" edge="1" parent="1">
                    <mxGeometry width="50" height="50" relative="1" as="geometry">
                        <mxPoint x="900" y="440" as="sourcePoint"/>
                        <mxPoint x="899.4399999999999" y="80" as="targetPoint"/>
                    </mxGeometry>
                </mxCell>
                <mxCell id="VTTvKSzOOsxa6JZsmWN2-2" value="" style="endArrow=none;html=1;entryX=0.5;entryY=1;entryDx=0;entryDy=0;startArrow=none;" edge="1" parent="1">
                    <mxGeometry width="50" height="50" relative="1" as="geometry">
                        <mxPoint x="580" y="440" as="sourcePoint"/>
                        <mxPoint x="579.44" y="80" as="targetPoint"/>
                    </mxGeometry>
                </mxCell>
                <mxCell id="VTTvKSzOOsxa6JZsmWN2-3" value="" style="endArrow=none;html=1;entryX=0.5;entryY=1;entryDx=0;entryDy=0;startArrow=none;" edge="1" parent="1">
                    <mxGeometry width="50" height="50" relative="1" as="geometry">
                        <mxPoint x="420" y="440" as="sourcePoint"/>
                        <mxPoint x="419.44000000000005" y="80" as="targetPoint"/>
                    </mxGeometry>
                </mxCell>
                <mxCell id="VTTvKSzOOsxa6JZsmWN2-4" value="" style="endArrow=none;html=1;entryX=0.5;entryY=1;entryDx=0;entryDy=0;startArrow=none;" edge="1" parent="1" source="63hrSBzB3HSz2IJns-Wd-24">
                    <mxGeometry width="50" height="50" relative="1" as="geometry">
                        <mxPoint x="259.9299999999998" y="400" as="sourcePoint"/>
                        <mxPoint x="259.37000000000006" y="80" as="targetPoint"/>
                    </mxGeometry>
                </mxCell>
                <mxCell id="63hrSBzB3HSz2IJns-Wd-1" value="" style="shape=flexArrow;endArrow=classic;html=1;width=5.217391304347826;endSize=4.130434782608696;endWidth=11.115311909262761;entryX=0;entryY=0;entryDx=0;entryDy=0;" edge="1" parent="1" target="63hrSBzB3HSz2IJns-Wd-37">
                    <mxGeometry width="50" height="50" relative="1" as="geometry">
                        <mxPoint y="120" as="sourcePoint"/>
                        <mxPoint x="70" y="120" as="targetPoint"/>
                    </mxGeometry>
                </mxCell>
                <mxCell id="63hrSBzB3HSz2IJns-Wd-2" value="Interrupt" style="edgeLabel;html=1;align=center;verticalAlign=middle;resizable=0;points=[];" vertex="1" connectable="0" parent="63hrSBzB3HSz2IJns-Wd-1">
                    <mxGeometry x="-0.0245" y="2" relative="1" as="geometry">
                        <mxPoint x="-9" y="-8" as="offset"/>
                    </mxGeometry>
                </mxCell>
                <mxCell id="63hrSBzB3HSz2IJns-Wd-4" value="" style="shape=flexArrow;endArrow=classic;html=1;width=5.217391304347826;endSize=4.130434782608696;endWidth=11.115311909262761;entryX=0;entryY=0;entryDx=0;entryDy=0;exitX=0.97;exitY=0.033;exitDx=0;exitDy=0;exitPerimeter=0;" edge="1" parent="1" source="63hrSBzB3HSz2IJns-Wd-37" target="63hrSBzB3HSz2IJns-Wd-24">
                    <mxGeometry width="50" height="50" relative="1" as="geometry">
                        <mxPoint x="130" y="130" as="sourcePoint"/>
                        <mxPoint x="260" y="130" as="targetPoint"/>
                    </mxGeometry>
                </mxCell>
                <mxCell id="63hrSBzB3HSz2IJns-Wd-5" value="Cancel Event Context" style="edgeLabel;html=1;align=center;verticalAlign=middle;resizable=0;points=[];" vertex="1" connectable="0" parent="63hrSBzB3HSz2IJns-Wd-4">
                    <mxGeometry x="-0.0245" y="2" relative="1" as="geometry">
                        <mxPoint x="2" y="-8" as="offset"/>
                    </mxGeometry>
                </mxCell>
                <mxCell id="63hrSBzB3HSz2IJns-Wd-12" value="" style="shape=flexArrow;endArrow=classic;html=1;width=5.217391304347826;endSize=4.130434782608696;endWidth=11.115311909262761;exitX=0;exitY=1;exitDx=0;exitDy=0;" edge="1" parent="1" source="63hrSBzB3HSz2IJns-Wd-24">
                    <mxGeometry width="50" height="50" relative="1" as="geometry">
                        <mxPoint x="220" y="190" as="sourcePoint"/>
                        <mxPoint x="110" y="200" as="targetPoint"/>
                    </mxGeometry>
                </mxCell>
                <mxCell id="63hrSBzB3HSz2IJns-Wd-13" value="Events shutdown" style="edgeLabel;html=1;align=center;verticalAlign=middle;resizable=0;points=[];" vertex="1" connectable="0" parent="63hrSBzB3HSz2IJns-Wd-12">
                    <mxGeometry x="-0.0245" y="2" relative="1" as="geometry">
                        <mxPoint x="2" y="-12" as="offset"/>
                    </mxGeometry>
                </mxCell>
                <mxCell id="63hrSBzB3HSz2IJns-Wd-14" value="Metrics" style="rounded=0;whiteSpace=wrap;html=1;" vertex="1" parent="1">
                    <mxGeometry x="1000" y="40" width="120" height="40" as="geometry"/>
                </mxCell>
                <mxCell id="63hrSBzB3HSz2IJns-Wd-15" value="Prometheus&lt;br&gt;Exporter" style="rounded=0;whiteSpace=wrap;html=1;" vertex="1" parent="1">
                    <mxGeometry x="1160" y="40" width="120" height="40" as="geometry"/>
                </mxCell>
                <mxCell id="63hrSBzB3HSz2IJns-Wd-16" value="MinIO" style="rounded=0;whiteSpace=wrap;html=1;" vertex="1" parent="1">
                    <mxGeometry x="1320" y="40" width="120" height="40" as="geometry"/>
                </mxCell>
                <mxCell id="63hrSBzB3HSz2IJns-Wd-17" value="Postgresql" style="rounded=0;whiteSpace=wrap;html=1;" vertex="1" parent="1">
                    <mxGeometry x="1480" y="40" width="120" height="40" as="geometry"/>
                </mxCell>
                <mxCell id="63hrSBzB3HSz2IJns-Wd-18" value="" style="endArrow=none;html=1;entryX=0.5;entryY=1;entryDx=0;entryDy=0;startArrow=none;" edge="1" parent="1">
                    <mxGeometry width="50" height="50" relative="1" as="geometry">
                        <mxPoint x="1380" y="440" as="sourcePoint"/>
                        <mxPoint x="1379.44" y="80" as="targetPoint"/>
                    </mxGeometry>
                </mxCell>
                <mxCell id="63hrSBzB3HSz2IJns-Wd-19" value="" style="endArrow=none;html=1;entryX=0.5;entryY=1;entryDx=0;entryDy=0;" edge="1" parent="1">
                    <mxGeometry width="50" height="50" relative="1" as="geometry">
                        <mxPoint x="1540" y="440" as="sourcePoint"/>
                        <mxPoint x="1539.44" y="80" as="targetPoint"/>
                    </mxGeometry>
                </mxCell>
                <mxCell id="63hrSBzB3HSz2IJns-Wd-20" value="" style="endArrow=none;html=1;entryX=0.5;entryY=1;entryDx=0;entryDy=0;startArrow=none;" edge="1" parent="1">
                    <mxGeometry width="50" height="50" relative="1" as="geometry">
                        <mxPoint x="1220" y="440" as="sourcePoint"/>
                        <mxPoint x="1219.44" y="80" as="targetPoint"/>
                    </mxGeometry>
                </mxCell>
                <mxCell id="63hrSBzB3HSz2IJns-Wd-21" value="" style="endArrow=none;html=1;entryX=0.5;entryY=1;entryDx=0;entryDy=0;startArrow=none;" edge="1" parent="1" source="zUmwXgmBiHJRF2sFsNlO-1">
                    <mxGeometry width="50" height="50" relative="1" as="geometry">
                        <mxPoint x="1060" y="480" as="sourcePoint"/>
                        <mxPoint x="1059.44" y="80" as="targetPoint"/>
                    </mxGeometry>
                </mxCell>
                <mxCell id="63hrSBzB3HSz2IJns-Wd-22" value="" style="shape=flexArrow;endArrow=classic;html=1;width=5.217391304347826;endSize=4.130434782608696;endWidth=11.115311909262761;" edge="1" parent="1">
                    <mxGeometry width="50" height="50" relative="1" as="geometry">
                        <mxPoint x="270" y="140" as="sourcePoint"/>
                        <mxPoint x="420" y="140" as="targetPoint"/>
                    </mxGeometry>
                </mxCell>
                <mxCell id="63hrSBzB3HSz2IJns-Wd-23" value="Close Kafka Reader" style="edgeLabel;html=1;align=center;verticalAlign=middle;resizable=0;points=[];" vertex="1" connectable="0" parent="63hrSBzB3HSz2IJns-Wd-22">
                    <mxGeometry x="-0.0245" y="2" relative="1" as="geometry">
                        <mxPoint x="2" y="-8" as="offset"/>
                    </mxGeometry>
                </mxCell>
                <mxCell id="63hrSBzB3HSz2IJns-Wd-25" value="" style="endArrow=none;html=1;entryX=0.5;entryY=1;entryDx=0;entryDy=0;startArrow=none;" edge="1" parent="1" target="63hrSBzB3HSz2IJns-Wd-24">
                    <mxGeometry width="50" height="50" relative="1" as="geometry">
                        <mxPoint x="260" y="440" as="sourcePoint"/>
                        <mxPoint x="259.3700000000001" y="80" as="targetPoint"/>
                    </mxGeometry>
                </mxCell>
                <mxCell id="63hrSBzB3HSz2IJns-Wd-24" value="" style="rounded=0;whiteSpace=wrap;html=1;" vertex="1" parent="1">
                    <mxGeometry x="250" y="130" width="20" height="70" as="geometry"/>
                </mxCell>
                <mxCell id="63hrSBzB3HSz2IJns-Wd-35" value="" style="shape=flexArrow;endArrow=classic;html=1;width=5.217391304347826;endSize=4.130434782608696;endWidth=11.115311909262761;entryX=1;entryY=0.5;entryDx=0;entryDy=0;dashed=1;dashPattern=1 1;" edge="1" parent="1">
                    <mxGeometry width="50" height="50" relative="1" as="geometry">
                        <mxPoint x="420" y="160" as="sourcePoint"/>
                        <mxPoint x="270" y="160" as="targetPoint"/>
                    </mxGeometry>
                </mxCell>
                <mxCell id="63hrSBzB3HSz2IJns-Wd-36" value="Error" style="edgeLabel;html=1;align=center;verticalAlign=middle;resizable=0;points=[];" vertex="1" connectable="0" parent="63hrSBzB3HSz2IJns-Wd-35">
                    <mxGeometry x="-0.0245" y="2" relative="1" as="geometry">
                        <mxPoint x="-7" y="-12" as="offset"/>
                    </mxGeometry>
                </mxCell>
                <mxCell id="63hrSBzB3HSz2IJns-Wd-37" value="" style="rounded=0;whiteSpace=wrap;html=1;" vertex="1" parent="1">
                    <mxGeometry x="90" y="120" width="20" height="310" as="geometry"/>
                </mxCell>
                <mxCell id="63hrSBzB3HSz2IJns-Wd-38" value="" style="shape=flexArrow;endArrow=classic;html=1;width=5.217391304347826;endSize=4.130434782608696;endWidth=11.115311909262761;entryX=0;entryY=0;entryDx=0;entryDy=0;" edge="1" parent="1" target="63hrSBzB3HSz2IJns-Wd-40">
                    <mxGeometry width="50" height="50" relative="1" as="geometry">
                        <mxPoint x="270.0000000000001" y="190" as="sourcePoint"/>
                        <mxPoint x="560" y="190" as="targetPoint"/>
                    </mxGeometry>
                </mxCell>
                <mxCell id="63hrSBzB3HSz2IJns-Wd-39" value="Close scanChan Channel" style="edgeLabel;html=1;align=center;verticalAlign=middle;resizable=0;points=[];" vertex="1" connectable="0" parent="63hrSBzB3HSz2IJns-Wd-38">
                    <mxGeometry x="-0.0245" y="2" relative="1" as="geometry">
                        <mxPoint x="2" y="-8" as="offset"/>
                    </mxGeometry>
                </mxCell>
                <mxCell id="63hrSBzB3HSz2IJns-Wd-40" value="" style="rounded=0;whiteSpace=wrap;html=1;" vertex="1" parent="1">
                    <mxGeometry x="570" y="190" width="20" height="140" as="geometry"/>
                </mxCell>
                <mxCell id="63hrSBzB3HSz2IJns-Wd-41" value="" style="shape=flexArrow;endArrow=classic;html=1;width=5.217391304347826;endSize=4.130434782608696;endWidth=11.115311909262761;entryX=0;entryY=0;entryDx=0;entryDy=0;" edge="1" parent="1" target="63hrSBzB3HSz2IJns-Wd-43">
                    <mxGeometry width="50" height="50" relative="1" as="geometry">
                        <mxPoint x="590.0000000000001" y="200" as="sourcePoint"/>
                        <mxPoint x="710" y="200" as="targetPoint"/>
                    </mxGeometry>
                </mxCell>
                <mxCell id="63hrSBzB3HSz2IJns-Wd-42" value="&lt;font style=&quot;font-size: 10px;&quot;&gt;WaitGroup Counter +1&lt;/font&gt;" style="edgeLabel;html=1;align=center;verticalAlign=middle;resizable=0;points=[];" vertex="1" connectable="0" parent="63hrSBzB3HSz2IJns-Wd-41">
                    <mxGeometry x="-0.0245" y="2" relative="1" as="geometry">
                        <mxPoint x="-1" y="12" as="offset"/>
                    </mxGeometry>
                </mxCell>
                <mxCell id="63hrSBzB3HSz2IJns-Wd-56" value="Scan Request" style="edgeLabel;html=1;align=center;verticalAlign=middle;resizable=0;points=[];fontSize=12;" vertex="1" connectable="0" parent="63hrSBzB3HSz2IJns-Wd-41">
                    <mxGeometry x="-0.0667" y="1" relative="1" as="geometry">
                        <mxPoint y="-11" as="offset"/>
                    </mxGeometry>
                </mxCell>
                <mxCell id="63hrSBzB3HSz2IJns-Wd-43" value="" style="rounded=0;whiteSpace=wrap;html=1;" vertex="1" parent="1">
                    <mxGeometry x="730" y="200" width="20" height="70" as="geometry"/>
                </mxCell>
                <mxCell id="63hrSBzB3HSz2IJns-Wd-44" value="" style="rounded=0;whiteSpace=wrap;html=1;" vertex="1" parent="1">
                    <mxGeometry x="890" y="210" width="20" height="50" as="geometry"/>
                </mxCell>
                <mxCell id="63hrSBzB3HSz2IJns-Wd-45" value="" style="shape=flexArrow;endArrow=classic;html=1;width=5.217391304347826;endSize=4.130434782608696;endWidth=11.115311909262761;entryX=0;entryY=0;entryDx=0;entryDy=0;" edge="1" parent="1" target="63hrSBzB3HSz2IJns-Wd-44">
                    <mxGeometry width="50" height="50" relative="1" as="geometry">
                        <mxPoint x="750" y="210" as="sourcePoint"/>
                        <mxPoint x="870" y="210" as="targetPoint"/>
                    </mxGeometry>
                </mxCell>
                <mxCell id="63hrSBzB3HSz2IJns-Wd-46" value="Scan" style="edgeLabel;html=1;align=center;verticalAlign=middle;resizable=0;points=[];" vertex="1" connectable="0" parent="63hrSBzB3HSz2IJns-Wd-45">
                    <mxGeometry x="-0.0245" y="2" relative="1" as="geometry">
                        <mxPoint x="2" y="-8" as="offset"/>
                    </mxGeometry>
                </mxCell>
                <mxCell id="63hrSBzB3HSz2IJns-Wd-47" value="" style="shape=flexArrow;endArrow=classic;html=1;width=5.217391304347826;endSize=4.130434782608696;endWidth=11.115311909262761;entryX=0.977;entryY=0.851;entryDx=0;entryDy=0;entryPerimeter=0;" edge="1" parent="1" target="63hrSBzB3HSz2IJns-Wd-43">
                    <mxGeometry width="50" height="50" relative="1" as="geometry">
                        <mxPoint x="890" y="260.00000000000006" as="sourcePoint"/>
                        <mxPoint x="1030" y="260.00000000000006" as="targetPoint"/>
                    </mxGeometry>
                </mxCell>
                <mxCell id="63hrSBzB3HSz2IJns-Wd-48" value="Scan Result" style="edgeLabel;html=1;align=center;verticalAlign=middle;resizable=0;points=[];" vertex="1" connectable="0" parent="63hrSBzB3HSz2IJns-Wd-47">
                    <mxGeometry x="-0.0245" y="2" relative="1" as="geometry">
                        <mxPoint x="2" y="-13" as="offset"/>
                    </mxGeometry>
                </mxCell>
                <mxCell id="63hrSBzB3HSz2IJns-Wd-50" value="&lt;font style=&quot;font-size: 12px;&quot;&gt;Perform Remaining Scan Requests in scanChan&lt;/font&gt;" style="text;html=1;strokeColor=none;fillColor=none;align=left;verticalAlign=middle;whiteSpace=wrap;rounded=0;dashed=1;" vertex="1" parent="1">
                    <mxGeometry x="585" y="142" width="145" height="30" as="geometry"/>
                </mxCell>
                <mxCell id="63hrSBzB3HSz2IJns-Wd-52" value="" style="shape=flexArrow;endArrow=classic;html=1;width=5.217391304347826;endSize=4.130434782608696;endWidth=11.115311909262761;entryX=1;entryY=0.75;entryDx=0;entryDy=0;" edge="1" parent="1">
                    <mxGeometry width="50" height="50" relative="1" as="geometry">
                        <mxPoint x="730" y="270" as="sourcePoint"/>
                        <mxPoint x="590" y="270" as="targetPoint"/>
                    </mxGeometry>
                </mxCell>
                <mxCell id="63hrSBzB3HSz2IJns-Wd-53" value="&lt;font style=&quot;font-size: 10px;&quot;&gt;WaitGroup Counter -1&lt;/font&gt;" style="edgeLabel;html=1;align=center;verticalAlign=middle;resizable=0;points=[];" vertex="1" connectable="0" parent="63hrSBzB3HSz2IJns-Wd-52">
                    <mxGeometry x="-0.0245" y="2" relative="1" as="geometry">
                        <mxPoint x="2" y="8" as="offset"/>
                    </mxGeometry>
                </mxCell>
                <mxCell id="63hrSBzB3HSz2IJns-Wd-54" value="" style="shape=flexArrow;endArrow=classic;html=1;width=5.217391304347826;endSize=4.130434782608696;endWidth=11.115311909262761;entryX=0.998;entryY=0.641;entryDx=0;entryDy=0;entryPerimeter=0;" edge="1" parent="1">
                    <mxGeometry width="50" height="50" relative="1" as="geometry">
                        <mxPoint x="570" y="329" as="sourcePoint"/>
                        <mxPoint x="109.96000000000004" y="329.25" as="targetPoint"/>
                    </mxGeometry>
                </mxCell>
                <mxCell id="63hrSBzB3HSz2IJns-Wd-55" value="Done Channel" style="edgeLabel;html=1;align=center;verticalAlign=middle;resizable=0;points=[];" vertex="1" connectable="0" parent="63hrSBzB3HSz2IJns-Wd-54">
                    <mxGeometry x="-0.0245" y="2" relative="1" as="geometry">
                        <mxPoint x="2" y="-14" as="offset"/>
                    </mxGeometry>
                </mxCell>
                <mxCell id="63hrSBzB3HSz2IJns-Wd-57" value="&lt;font style=&quot;font-size: 10px;&quot;&gt;If WaitGroup Counter = 0;&lt;br&gt;Send Done&lt;br&gt;&lt;/font&gt;" style="text;html=1;strokeColor=none;fillColor=none;align=center;verticalAlign=middle;whiteSpace=wrap;rounded=0;dashed=1;fontSize=11;" vertex="1" parent="1">
                    <mxGeometry x="590" y="310" width="120" height="20" as="geometry"/>
                </mxCell>
                <mxCell id="63hrSBzB3HSz2IJns-Wd-58" value="" style="shape=flexArrow;endArrow=classic;html=1;width=5.217391304347826;endSize=4.130434782608696;endWidth=11.115311909262761;entryX=0;entryY=0;entryDx=0;entryDy=0;" edge="1" parent="1" target="zUmwXgmBiHJRF2sFsNlO-1">
                    <mxGeometry width="50" height="50" relative="1" as="geometry">
                        <mxPoint x="110" y="360" as="sourcePoint"/>
                        <mxPoint x="1060" y="360" as="targetPoint"/>
                    </mxGeometry>
                </mxCell>
                <mxCell id="63hrSBzB3HSz2IJns-Wd-59" value="Stop()" style="edgeLabel;html=1;align=center;verticalAlign=middle;resizable=0;points=[];" vertex="1" connectable="0" parent="63hrSBzB3HSz2IJns-Wd-58">
                    <mxGeometry x="-0.0245" y="2" relative="1" as="geometry">
                        <mxPoint x="2" y="-8" as="offset"/>
                    </mxGeometry>
                </mxCell>
                <mxCell id="YnFU0GElbjKDlLKo2xeg-1" value="" style="shape=flexArrow;endArrow=classic;html=1;width=5.217391304347826;endSize=4.130434782608696;endWidth=11.115311909262761;exitX=1;exitY=1;exitDx=0;exitDy=0;" edge="1" parent="1" source="zUmwXgmBiHJRF2sFsNlO-1">
                    <mxGeometry width="50" height="50" relative="1" as="geometry">
                        <mxPoint x="1090" y="380" as="sourcePoint"/>
                        <mxPoint x="1220" y="380" as="targetPoint"/>
                    </mxGeometry>
                </mxCell>
                <mxCell id="YnFU0GElbjKDlLKo2xeg-2" value="Close HTTP Server" style="edgeLabel;html=1;align=center;verticalAlign=middle;resizable=0;points=[];" vertex="1" connectable="0" parent="YnFU0GElbjKDlLKo2xeg-1">
                    <mxGeometry x="-0.0245" y="2" relative="1" as="geometry">
                        <mxPoint x="2" y="-8" as="offset"/>
                    </mxGeometry>
                </mxCell>
                <mxCell id="YnFU0GElbjKDlLKo2xeg-3" value="" style="shape=flexArrow;endArrow=classic;html=1;width=5.217391304347826;endSize=4.130434782608696;endWidth=11.115311909262761;" edge="1" parent="1">
                    <mxGeometry width="50" height="50" relative="1" as="geometry">
                        <mxPoint x="110" y="400.0000000000001" as="sourcePoint"/>
                        <mxPoint x="1380" y="400" as="targetPoint"/>
                    </mxGeometry>
                </mxCell>
                <mxCell id="YnFU0GElbjKDlLKo2xeg-4" value="Cancel Context" style="edgeLabel;html=1;align=center;verticalAlign=middle;resizable=0;points=[];" vertex="1" connectable="0" parent="YnFU0GElbjKDlLKo2xeg-3">
                    <mxGeometry x="-0.0245" y="2" relative="1" as="geometry">
                        <mxPoint x="2" y="-8" as="offset"/>
                    </mxGeometry>
                </mxCell>
                <mxCell id="YnFU0GElbjKDlLKo2xeg-5" value="" style="shape=flexArrow;endArrow=classic;html=1;width=5.217391304347826;endSize=4.130434782608696;endWidth=11.115311909262761;" edge="1" parent="1">
                    <mxGeometry width="50" height="50" relative="1" as="geometry">
                        <mxPoint x="109.99999999999977" y="420" as="sourcePoint"/>
                        <mxPoint x="1540" y="420" as="targetPoint"/>
                    </mxGeometry>
                </mxCell>
                <mxCell id="YnFU0GElbjKDlLKo2xeg-6" value="Cancel Context" style="edgeLabel;html=1;align=center;verticalAlign=middle;resizable=0;points=[];" vertex="1" connectable="0" parent="YnFU0GElbjKDlLKo2xeg-5">
                    <mxGeometry x="-0.0245" y="2" relative="1" as="geometry">
                        <mxPoint x="2" y="-8" as="offset"/>
                    </mxGeometry>
                </mxCell>
                <mxCell id="zUmwXgmBiHJRF2sFsNlO-2" value="" style="endArrow=none;html=1;entryX=0.5;entryY=1;entryDx=0;entryDy=0;startArrow=none;" edge="1" parent="1" target="zUmwXgmBiHJRF2sFsNlO-1">
                    <mxGeometry width="50" height="50" relative="1" as="geometry">
                        <mxPoint x="1060" y="440" as="sourcePoint"/>
                        <mxPoint x="1059.44" y="80" as="targetPoint"/>
                    </mxGeometry>
                </mxCell>
                <mxCell id="zUmwXgmBiHJRF2sFsNlO-1" value="" style="rounded=0;whiteSpace=wrap;html=1;fontSize=10;" vertex="1" parent="1">
                    <mxGeometry x="1050" y="360" width="20" height="20" as="geometry"/>
                </mxCell>
                <mxCell id="zUmwXgmBiHJRF2sFsNlO-3" value="" style="shape=flexArrow;endArrow=classic;html=1;width=5.217391304347826;endSize=4.130434782608696;endWidth=11.115311909262761;" edge="1" parent="1">
                    <mxGeometry width="50" height="50" relative="1" as="geometry">
                        <mxPoint x="90" y="429.23" as="sourcePoint"/>
                        <mxPoint y="429" as="targetPoint"/>
                    </mxGeometry>
                </mxCell>
                <mxCell id="zUmwXgmBiHJRF2sFsNlO-4" value="Aegis Stopped" style="edgeLabel;html=1;align=center;verticalAlign=middle;resizable=0;points=[];" vertex="1" connectable="0" parent="zUmwXgmBiHJRF2sFsNlO-3">
                    <mxGeometry x="-0.0245" y="2" relative="1" as="geometry">
                        <mxPoint x="4" y="-17" as="offset"/>
                    </mxGeometry>
                </mxCell>
            </root>
        </mxGraphModel>
    </diagram>
</mxfile>